<svg width="148" height="105" viewBox="0 0 148 105" fill="none" xmlns="http://www.w3.org/2000/svg">
<rect width="148" height="105" fill="#F5F5F5"/>
<g id="#2 &#208;&#158;&#208;&#189;&#208;&#190; &#209;&#130;&#208;&#181;&#208;&#177;&#208;&#181; &#208;&#189;&#208;&#176;&#208;&#180;&#208;&#190; - &#208;&#147;&#208;&#187;&#208;&#176;&#208;&#178;&#208;&#189;&#208;&#176;&#209;&#143;" clip-path="url(#clip0_0_1)">
<rect width="1440" height="2844" transform="translate(-639 -91)" fill="white"/>
<g id="header">
<g id="logo" clip-path="url(#clip1_0_1)">
<path id="Vector" d="M11.3851 2.78943H135.439V97.6315H11.3851V2.78943Z" stroke="black" stroke-width="6"/>
<path id="Vector_2" d="M25.2085 34.6359C22.8672 34.6359 20.754 34.171 18.869 33.2412C16.9838 32.3114 15.3571 31.0561 13.9889 29.4754C12.6206 27.8637 11.5564 26.066 10.7963 24.0824C10.0666 22.0678 9.7017 20.0067 9.7017 17.8991C9.7017 15.6985 10.097 13.6064 10.8875 11.6228C11.678 9.60811 12.7726 7.82598 14.1713 6.27627C15.5699 4.69556 17.2118 3.4558 19.097 2.55697C21.0125 1.62714 23.0801 1.16223 25.2997 1.16223C27.6105 1.16223 29.7085 1.64264 31.5936 2.60346C33.5092 3.56428 35.1358 4.85053 36.4737 6.46223C37.8419 8.07392 38.8909 9.87162 39.6207 11.8552C40.3808 13.8388 40.7609 15.869 40.7609 17.9456C40.7609 20.1462 40.3655 22.2537 39.575 24.2684C38.8149 26.252 37.7355 28.0342 36.3369 29.6149C34.9382 31.1646 33.2811 32.3888 31.3656 33.2877C29.4804 34.1865 27.4281 34.6359 25.2085 34.6359ZM14.9011 17.8991C14.9011 19.4488 15.1442 20.952 15.6308 22.4087C16.1172 23.8655 16.8014 25.1672 17.6832 26.314C18.5953 27.4298 19.6899 28.3131 20.9669 28.964C22.244 29.6149 23.673 29.9403 25.2541 29.9403C26.896 29.9403 28.3555 29.5993 29.6325 28.9175C30.9095 28.2357 31.9736 27.3213 32.825 26.1745C33.7067 24.9967 34.3757 23.6949 34.8318 22.2692C35.2879 20.8125 35.5159 19.3558 35.5159 17.8991C35.5159 16.3493 35.2727 14.8616 34.7862 13.4359C34.3301 11.9792 33.646 10.6929 32.7338 9.57714C31.8217 8.43035 30.7271 7.53153 29.4501 6.88065C28.2034 6.22978 26.8048 5.90434 25.2541 5.90434C23.6122 5.90434 22.1528 6.24528 20.8757 6.92714C19.5987 7.60901 18.5192 8.52334 17.6375 9.67013C16.7558 10.8169 16.0716 12.1032 15.5852 13.5289C15.1291 14.9546 14.9011 16.4114 14.9011 17.8991ZM87.2333 1.39469V34.4035H82.0796V19.8517H65.7519V34.4035H60.6438V1.39469H65.7519V15.2026H82.0796V1.39469H87.2333ZM122.587 34.6359C120.246 34.6359 118.133 34.171 116.247 33.2412C114.363 32.3114 112.735 31.0561 111.367 29.4754C109.999 27.8637 108.935 26.066 108.175 24.0824C107.445 22.0678 107.08 20.0067 107.08 17.8991C107.08 15.6985 107.476 13.6064 108.266 11.6228C109.057 9.60811 110.151 7.82598 111.55 6.27627C112.949 4.69556 114.591 3.4558 116.475 2.55697C118.391 1.62714 120.459 1.16223 122.678 1.16223C124.989 1.16223 127.087 1.64264 128.972 2.60346C130.888 3.56428 132.515 4.85053 133.852 6.46223C135.22 8.07392 136.269 9.87162 136.999 11.8552C137.76 13.8388 138.139 15.869 138.139 17.9456C138.139 20.1462 137.744 22.2537 136.953 24.2684C136.194 26.252 135.114 28.0342 133.715 29.6149C132.317 31.1646 130.659 32.3888 128.744 33.2877C126.859 34.1865 124.807 34.6359 122.587 34.6359ZM112.279 17.8991C112.279 19.4488 112.523 20.952 113.009 22.4087C113.496 23.8655 114.18 25.1672 115.061 26.314C115.974 27.4298 117.068 28.3131 118.345 28.964C119.622 29.6149 121.052 29.9403 122.632 29.9403C124.274 29.9403 125.734 29.5993 127.011 28.9175C128.288 28.2357 129.352 27.3213 130.203 26.1745C131.085 24.9967 131.754 23.6949 132.21 22.2692C132.666 20.8125 132.894 19.3558 132.894 17.8991C132.894 16.3493 132.652 14.8616 132.165 13.4359C131.708 11.9792 131.024 10.6929 130.112 9.57714C129.2 8.43035 128.105 7.53153 126.828 6.88065C125.582 6.22978 124.183 5.90434 122.632 5.90434C120.991 5.90434 119.531 6.24528 118.254 6.92714C116.977 7.60901 115.898 8.52334 115.016 9.67013C114.135 10.8169 113.451 12.1032 112.964 13.5289C112.507 14.9546 112.279 16.4114 112.279 17.8991ZM35.7535 38.5412H24.99V66.9473H19.8363V38.5412H9.02723V33.9385H35.7535V38.5412ZM67.324 62.3447V66.9473H45.1129V33.9385H66.9136V38.5412H50.221V47.9324H64.6788V52.2561H50.221V62.3447H67.324ZM77.656 66.9473V33.9385H100.415V38.4947H82.7641V47.7464H92.2506C95.8385 47.7464 98.5295 48.6142 100.324 50.3499C102.117 52.0546 103.015 54.3172 103.015 57.1377C103.015 59.0283 102.619 60.7175 101.829 62.2052C101.068 63.662 99.9132 64.8242 98.3625 65.6921C96.842 66.5289 94.9111 66.9473 92.5698 66.9473H77.656ZM82.7641 62.3912H91.8857C93.2844 62.3912 94.4094 62.1278 95.2607 61.6008C96.1425 61.0739 96.7663 60.4076 97.1311 59.6017C97.5261 58.7649 97.724 57.8971 97.724 56.9982C97.724 56.0993 97.5562 55.2625 97.2223 54.4877C96.8876 53.7128 96.2792 53.0929 95.3976 52.628C94.5462 52.1321 93.3452 51.8842 91.7945 51.8842H82.7641V62.3912ZM135.036 62.3447V66.9473H112.825V33.9385H134.626V38.5412H117.933V47.9324H132.391V52.2561H117.933V62.3447H135.036ZM35.6399 66.4824V99.4912H30.4862V84.9394H14.1585V99.4912H9.05039V66.4824H14.1585V80.2903H30.4862V66.4824H35.6399ZM53.2065 66.4824H58.041L70.6288 99.4912H65.247L61.8264 90.5184H49.3298L45.9548 99.4912H40.5274L53.2065 66.4824ZM60.823 86.6596L55.6237 72.2008L50.242 86.6596H60.823ZM70.4375 105.814V94.8885H71.9882C72.8395 94.8885 73.5692 94.5473 74.1774 93.8657C74.8159 93.1842 75.348 92.0991 75.7737 90.6114C76.2297 89.1236 76.5794 87.171 76.8226 84.7535C77.0963 82.305 77.2939 79.314 77.4156 75.7806L77.6436 66.4824H98.4866V94.8885H102.591V105.814H98.0761V99.4912H74.9527V105.814H70.4375ZM78.4645 94.8885H93.3328V71.085H82.3868L82.25 76.478C82.1588 80.0423 81.9764 83.0642 81.7027 85.5438C81.4291 87.9923 81.0337 89.976 80.5169 91.4947C80 93.0131 79.3159 94.1447 78.4645 94.8885ZM122.406 99.7236C120.065 99.7236 117.952 99.2587 116.067 98.3289C114.181 97.3991 112.555 96.1438 111.187 94.5631C109.818 92.9514 108.754 91.1537 107.994 89.1701C107.264 87.1555 106.899 85.0944 106.899 82.9868C106.899 80.7862 107.294 78.6941 108.085 76.7105C108.876 74.6958 109.971 72.9137 111.369 71.364C112.767 69.7833 114.409 68.5435 116.295 67.6447C118.21 66.7149 120.278 66.2499 122.497 66.2499C124.808 66.2499 126.906 66.7304 128.791 67.6912C130.707 68.652 132.333 69.9383 133.671 71.5499C135.04 73.1616 136.089 74.9593 136.818 76.9429C137.578 78.9265 137.959 80.9567 137.959 83.0333C137.959 85.2339 137.564 87.3414 136.773 89.3561C136.013 91.3397 134.933 93.1219 133.535 94.7026C132.136 96.2526 130.479 97.4762 128.563 98.3754C126.678 99.2745 124.626 99.7236 122.406 99.7236ZM112.099 82.9868C112.099 84.5365 112.342 86.0397 112.829 87.4964C113.315 88.9532 113.999 90.255 114.881 91.4017C115.793 92.5175 116.888 93.4008 118.165 94.0517C119.442 94.7026 120.871 95.028 122.452 95.028C124.094 95.028 125.553 94.6868 126.83 94.0052C128.107 93.3236 129.172 92.409 130.023 91.2622C130.905 90.0844 131.573 88.7827 132.03 87.357C132.486 85.9002 132.714 84.4435 132.714 82.9868C132.714 81.437 132.47 79.9493 131.984 78.5236C131.528 77.0669 130.844 75.7807 129.932 74.6649C129.019 73.5181 127.925 72.6192 126.648 71.9684C125.401 71.3175 124.002 70.9921 122.452 70.9921C120.81 70.9921 119.35 71.333 118.073 72.0149C116.796 72.6967 115.717 73.6111 114.835 74.7578C113.953 75.9046 113.269 77.1909 112.783 78.6166C112.327 80.0423 112.099 81.4991 112.099 82.9868Z" fill="black"/>
</g>
</g>
</g>
<defs>
<clipPath id="clip0_0_1">
<rect width="1440" height="2844" fill="white" transform="translate(-639 -91)"/>
</clipPath>
<clipPath id="clip1_0_1">
<rect width="148" height="105" fill="white"/>
</clipPath>
</defs>
</svg>
